<?xml version="1.0" encoding="UTF-8"?>
<svg xmlns="http://www.w3.org/2000/svg" version="1.1" viewBox="0 0 512 512">
  <defs>
    <style>
      .cls-1 {
        fill: #fff;
      }
    </style>
  </defs>
  <!-- Generator: Adobe Illustrator 28.6.0, SVG Export Plug-In . SVG Version: 1.2.0 Build 709)  -->
  <g>
    <g id="Filled">
      <path class="cls-1" d="M362.7,0h-213.3C90.5,0,42.7,47.9,42.7,106.7v298.7c0,58.8,47.9,106.7,106.7,106.7h213.3c58.8,0,106.7-47.9,106.7-106.7V106.7C469.3,47.9,421.5,0,362.7,0ZM213.3,405.3c0,11.8-9.6,21.3-21.3,21.3h-42.7c-11.8,0-21.3-9.6-21.3-21.3v-42.7c0-11.8,9.6-21.3,21.3-21.3h42.7c11.8,0,21.3,9.6,21.3,21.3v42.7ZM213.3,277.3c0,11.8-9.6,21.3-21.3,21.3h-42.7c-11.8,0-21.3-9.6-21.3-21.3v-42.7c0-11.8,9.6-21.3,21.3-21.3h42.7c11.8,0,21.3,9.6,21.3,21.3v42.7ZM213.3,149.3c0,11.8-9.6,21.3-21.3,21.3h-42.7c-11.8,0-21.3-9.6-21.3-21.3v-42.7c0-11.8,9.6-21.3,21.3-21.3h42.7c11.8,0,21.3,9.6,21.3,21.3v42.7ZM362.7,405.3h-85.3c-27.9-.1-27.9-42.5,0-42.7h85.3c27.9.1,27.9,42.5,0,42.7ZM362.7,277.3h-85.3c-27.9-.1-27.9-42.5,0-42.7h85.3c27.9.1,27.9,42.5,0,42.7ZM362.7,149.3h-85.3c-27.9-.1-27.9-42.5,0-42.7h85.3c27.9.1,27.9,42.5,0,42.7Z"/>
    </g>
  </g>
</svg>